<?xml version="1.0" encoding="UTF-8" standalone="no"?>
<!DOCTYPE svg PUBLIC "-//W3C//DTD SVG 1.1//EN"
 "http://www.w3.org/Graphics/SVG/1.1/DTD/svg11.dtd">
<!-- Generated by graphviz version 2.40.1 (20161225.0304)
 -->
<!-- Title: GRAMPS_graph Pages: 1 -->
<svg width="636pt" height="823pt"
 viewBox="72.00 72.00 539.00 717.86" xmlns="http://www.w3.org/2000/svg" xmlns:xlink="http://www.w3.org/1999/xlink">
<g id="graph0" class="graph" transform="scale(.315 .315) rotate(0) translate(242.1242 2370.1585)">
<title>GRAMPS_graph</title>
<polygon fill="#ffffff" stroke="transparent" points="-4,4 -4,-2132.0343 1540.5,-2132.0343 1540.5,4 -4,4"/>
<g id="clust1" class="cluster">
<title>cluster_2480424420706575</title>
</g>
<g id="clust2" class="cluster">
<title>cluster_2708895315918914</title>
</g>
<g id="clust3" class="cluster">
<title>cluster_8727096660082386</title>
</g>
<g id="clust4" class="cluster">
<title>cluster_4579042695201841</title>
</g>
<g id="clust5" class="cluster">
<title>cluster_5426651165619584</title>
</g>
<g id="clust6" class="cluster">
<title>cluster_7912501744673169</title>
</g>
<!-- 3421093335847336&#45;&gt;2480424420706575 -->
<g id="edge1" class="edge">
<title>3421093335847336&#45;&gt;2480424420706575</title>
<path fill="none" stroke="#000000" d="M475.8118,-1326.596C486.5978,-1274.5202 517.3818,-1125.8911 530.2434,-1063.7935"/>
<polygon fill="#000000" stroke="#000000" points="533.6873,-1064.4225 532.2883,-1053.9205 526.8328,-1063.0028 533.6873,-1064.4225"/>
</g>
<!-- 3421093335847336&#45;&gt;2708895315918914 -->
<g id="edge3" class="edge">
<title>3421093335847336&#45;&gt;2708895315918914</title>
<path fill="none" stroke="#000000" d="M458.1226,-1326.596C418.157,-1273.5944 302.7744,-1120.5764 257.5231,-1060.5649"/>
<polygon fill="#000000" stroke="#000000" points="260.1881,-1058.2859 251.3728,-1052.4086 254.599,-1062.5003 260.1881,-1058.2859"/>
</g>
<!-- 2480424420706575&#45;&gt;537652579436386 -->
<g id="edge15" class="edge">
<title>2480424420706575&#45;&gt;537652579436386</title>
<path fill="none" stroke="#000000" d="M523.9568,-1019.4406C487.2326,-968.9449 376.4316,-816.5934 331.3717,-754.6361"/>
<polygon fill="#000000" stroke="#000000" points="333.9296,-752.2024 325.2172,-746.1737 328.2684,-756.3197 333.9296,-752.2024"/>
</g>
<!-- 2480424420706575&#45;&gt;5125580830512176 -->
<g id="edge19" class="edge">
<title>2480424420706575&#45;&gt;5125580830512176</title>
<path fill="none" stroke="#000000" d="M529.2611,-1018.5581C509.5135,-967.4466 451.6661,-817.724 427.6461,-755.5546"/>
<polygon fill="#000000" stroke="#000000" points="430.8303,-754.0844 423.9614,-746.0178 424.3007,-756.6072 430.8303,-754.0844"/>
</g>
<!-- 2480424420706575&#45;&gt;5608348862428096 -->
<g id="edge20" class="edge">
<title>2480424420706575&#45;&gt;5608348862428096</title>
<path fill="none" stroke="#000000" d="M535.2257,-1017.6556C533.0445,-965.9777 526.837,-818.9079 524.2042,-756.5293"/>
<polygon fill="#000000" stroke="#000000" points="527.6889,-756.0918 523.7702,-746.2483 520.6951,-756.387 527.6889,-756.0918"/>
</g>
<!-- 2480424420706575&#45;&gt;8676921012395545 -->
<g id="edge23" class="edge">
<title>2480424420706575&#45;&gt;8676921012395545</title>
<path fill="none" stroke="#000000" d="M541.2278,-1018.1093C556.2292,-966.7711 599.5052,-818.6711 617.7413,-756.263"/>
<polygon fill="#000000" stroke="#000000" points="621.1992,-756.9078 620.6446,-746.3275 614.4802,-754.9444 621.1992,-756.9078"/>
</g>
<!-- 2480424420706575&#45;&gt;8955187234341081 -->
<g id="edge24" class="edge">
<title>2480424420706575&#45;&gt;8955187234341081</title>
<path fill="none" stroke="#000000" d="M546.6991,-1019.4406C579.3246,-968.9449 677.7594,-816.5934 717.7903,-754.6361"/>
<polygon fill="#000000" stroke="#000000" points="720.7708,-756.4725 723.2579,-746.1737 714.8912,-752.6736 720.7708,-756.4725"/>
</g>
<!-- 2480424420706575&#45;&gt;1194404901759110 -->
<g id="edge25" class="edge">
<title>2480424420706575&#45;&gt;1194404901759110</title>
<path fill="none" stroke="#000000" d="M551.3234,-1020.7262C600.9558,-971.2544 757.6634,-815.054 819.5252,-753.3924"/>
<polygon fill="#000000" stroke="#000000" points="822.3147,-755.5537 826.9264,-746.0151 817.373,-750.5959 822.3147,-755.5537"/>
</g>
<!-- 1838672550713352&#45;&gt;2480424420706575 -->
<g id="edge2" class="edge">
<title>1838672550713352&#45;&gt;2480424420706575</title>
<path fill="none" stroke="#000000" d="M596.1882,-1326.596C585.4022,-1274.5202 554.6182,-1125.8911 541.7566,-1063.7935"/>
<polygon fill="#000000" stroke="#000000" points="545.1672,-1063.0028 539.7117,-1053.9205 538.3127,-1064.4225 545.1672,-1063.0028"/>
</g>
<!-- 2708895315918914&#45;&gt;2404594069846226 -->
<g id="edge26" class="edge">
<title>2708895315918914&#45;&gt;2404594069846226</title>
<path fill="none" stroke="#000000" d="M229.0108,-1019.0019C199.1222,-968.1417 110.2151,-816.8522 73.8104,-754.904"/>
<polygon fill="#000000" stroke="#000000" points="76.7182,-752.9439 68.6341,-746.0957 70.6832,-756.4905 76.7182,-752.9439"/>
</g>
<!-- 6975093731668089&#45;&gt;2708895315918914 -->
<g id="edge4" class="edge">
<title>6975093731668089&#45;&gt;2708895315918914</title>
<path fill="none" stroke="#000000" d="M239,-1326.596C239,-1274.7503 239,-1127.203 239,-1064.6219"/>
<polygon fill="#000000" stroke="#000000" points="242.5001,-1064.3075 239,-1054.3075 235.5001,-1064.3076 242.5001,-1064.3075"/>
</g>
<!-- 4843542927562395&#45;&gt;8727096660082386 -->
<g id="edge5" class="edge">
<title>4843542927562395&#45;&gt;8727096660082386</title>
<path fill="none" stroke="#000000" d="M184.1286,-709.596C173.1741,-657.5202 141.9091,-508.8911 128.8465,-446.7935"/>
<polygon fill="#000000" stroke="#000000" points="132.2533,-445.9858 126.7697,-436.9205 125.4032,-447.4268 132.2533,-445.9858"/>
</g>
<!-- 8727096660082386&#45;&gt;3559478975903740 -->
<g id="edge17" class="edge">
<title>8727096660082386&#45;&gt;3559478975903740</title>
<path fill="none" stroke="#000000" d="M119.4567,-401.1093C109.2891,-349.7711 79.9576,-201.6711 67.5975,-139.263"/>
<polygon fill="#000000" stroke="#000000" points="71.006,-138.457 65.6298,-129.3275 64.1393,-139.817 71.006,-138.457"/>
</g>
<!-- 8727096660082386&#45;&gt;6182738364292124 -->
<g id="edge22" class="edge">
<title>8727096660082386&#45;&gt;6182738364292124</title>
<path fill="none" stroke="#000000" d="M126.5433,-401.1093C136.7109,-349.7711 166.0424,-201.6711 178.4025,-139.263"/>
<polygon fill="#000000" stroke="#000000" points="181.8607,-139.817 180.3702,-129.3275 174.994,-138.457 181.8607,-139.817"/>
</g>
<!-- 2404594069846226&#45;&gt;8727096660082386 -->
<g id="edge6" class="edge">
<title>2404594069846226&#45;&gt;8727096660082386</title>
<path fill="none" stroke="#000000" d="M61.8714,-709.596C72.8259,-657.5202 104.0909,-508.8911 117.1535,-446.7935"/>
<polygon fill="#000000" stroke="#000000" points="120.5968,-447.4268 119.2303,-436.9205 113.7467,-445.9858 120.5968,-447.4268"/>
</g>
<!-- 5395477325573460&#45;&gt;4579042695201841 -->
<g id="edge7" class="edge">
<title>5395477325573460&#45;&gt;4579042695201841</title>
<path fill="none" stroke="#000000" d="M874,-1326.596C874,-1274.7503 874,-1127.203 874,-1064.6219"/>
<polygon fill="#000000" stroke="#000000" points="877.5001,-1064.3075 874,-1054.3075 870.5001,-1064.3076 877.5001,-1064.3075"/>
</g>
<!-- 4579042695201841&#45;&gt;723144785164344 -->
<g id="edge13" class="edge">
<title>4579042695201841&#45;&gt;723144785164344</title>
<path fill="none" stroke="#000000" d="M878.5308,-1018.1093C891.532,-966.7711 929.0378,-818.6711 944.8425,-756.263"/>
<polygon fill="#000000" stroke="#000000" points="948.2965,-756.8807 947.3586,-746.3275 941.5107,-755.1622 948.2965,-756.8807"/>
</g>
<!-- 4734587464908873&#45;&gt;4579042695201841 -->
<g id="edge8" class="edge">
<title>4734587464908873&#45;&gt;4579042695201841</title>
<path fill="none" stroke="#000000" d="M753.6237,-1326.596C775.2911,-1274.2895 837.3098,-1124.5725 862.8265,-1062.9734"/>
<polygon fill="#000000" stroke="#000000" points="866.1419,-1064.1152 866.7355,-1053.537 859.6748,-1061.4363 866.1419,-1064.1152"/>
</g>
<!-- 6351534230216720&#45;&gt;5426651165619584 -->
<g id="edge9" class="edge">
<title>6351534230216720&#45;&gt;5426651165619584</title>
<path fill="none" stroke="#000000" d="M1098.7838,-1942.6556C1089.7046,-1890.8707 1063.8315,-1743.2985 1052.9341,-1681.1429"/>
<polygon fill="#000000" stroke="#000000" points="1056.3738,-1680.4936 1051.1994,-1671.2483 1049.4789,-1681.7025 1056.3738,-1680.4936"/>
</g>
<!-- 5426651165619584&#45;&gt;3421093335847336 -->
<g id="edge14" class="edge">
<title>5426651165619584&#45;&gt;3421093335847336</title>
<path fill="none" stroke="#000000" d="M1026.8167,-1641.6728C942.5346,-1596.6053 630.0115,-1429.4923 514.9143,-1367.9472"/>
<polygon fill="#000000" stroke="#000000" points="516.4751,-1364.8129 506.0062,-1363.1839 513.1743,-1370.9858 516.4751,-1364.8129"/>
</g>
<!-- 5426651165619584&#45;&gt;4734587464908873 -->
<g id="edge18" class="edge">
<title>5426651165619584&#45;&gt;4734587464908873</title>
<path fill="none" stroke="#000000" d="M1033.0238,-1637.7262C984.5157,-1588.2544 831.3581,-1432.054 770.8977,-1370.3924"/>
<polygon fill="#000000" stroke="#000000" points="773.1645,-1367.705 763.6642,-1363.0151 768.1663,-1372.6059 773.1645,-1367.705"/>
</g>
<!-- 5426651165619584&#45;&gt;6260681825694879 -->
<g id="edge16" class="edge">
<title>5426651165619584&#45;&gt;6260681825694879</title>
<path fill="none" stroke="#000000" d="M1044.8633,-1635.1093C1035.8625,-1583.7711 1009.8969,-1435.6711 998.9552,-1373.263"/>
<polygon fill="#000000" stroke="#000000" points="1002.3877,-1372.5728 997.2133,-1363.3275 995.4928,-1373.7817 1002.3877,-1372.5728"/>
</g>
<!-- 5426651165619584&#45;&gt;5892173496969168 -->
<g id="edge21" class="edge">
<title>5426651165619584&#45;&gt;5892173496969168</title>
<path fill="none" stroke="#000000" d="M1051.1367,-1635.1093C1060.1375,-1583.7711 1086.1031,-1435.6711 1097.0448,-1373.263"/>
<polygon fill="#000000" stroke="#000000" points="1100.5072,-1373.7817 1098.7867,-1363.3275 1093.6123,-1372.5728 1100.5072,-1373.7817"/>
</g>
<!-- 5426651165619584&#45;&gt;3785291837367488 -->
<g id="edge27" class="edge">
<title>5426651165619584&#45;&gt;3785291837367488</title>
<path fill="none" stroke="#000000" d="M1063.4825,-1638.1445C1114.6288,-1589.0696 1278.5668,-1431.7708 1342.8173,-1370.1224"/>
<polygon fill="#000000" stroke="#000000" points="1345.3518,-1372.5411 1350.1443,-1363.0921 1340.5053,-1367.4901 1345.3518,-1372.5411"/>
</g>
<!-- 5426651165619584&#45;&gt;5213984910046277 -->
<g id="edge28" class="edge">
<title>5426651165619584&#45;&gt;5213984910046277</title>
<path fill="none" stroke="#000000" d="M1066.8633,-1639.7656C1134.5236,-1592.2955 1365.6277,-1430.1541 1453.0907,-1368.7906"/>
<polygon fill="#000000" stroke="#000000" points="1455.163,-1371.6122 1461.339,-1363.0036 1451.1426,-1365.8819 1455.163,-1371.6122"/>
</g>
<!-- 7668301482056250&#45;&gt;5426651165619584 -->
<g id="edge10" class="edge">
<title>7668301482056250&#45;&gt;5426651165619584</title>
<path fill="none" stroke="#000000" d="M998.1567,-1942.6556C1007.0677,-1890.8707 1032.4616,-1743.2985 1043.1572,-1681.1429"/>
<polygon fill="#000000" stroke="#000000" points="1046.6132,-1681.697 1044.8599,-1671.2483 1039.7146,-1680.5099 1046.6132,-1681.697"/>
</g>
<!-- 1903025202264851&#45;&gt;7912501744673169 -->
<g id="edge11" class="edge">
<title>1903025202264851&#45;&gt;7912501744673169</title>
<path fill="none" stroke="#000000" d="M1230.0691,-1326.596C1218.9461,-1274.5202 1187.2,-1125.8911 1173.9365,-1063.7935"/>
<polygon fill="#000000" stroke="#000000" points="1177.3394,-1062.9688 1171.8277,-1053.9205 1170.4938,-1064.431 1177.3394,-1062.9688"/>
</g>
<!-- 5892173496969168&#45;&gt;7912501744673169 -->
<g id="edge12" class="edge">
<title>5892173496969168&#45;&gt;7912501744673169</title>
<path fill="none" stroke="#000000" d="M1105.9309,-1326.596C1117.0539,-1274.5202 1148.8,-1125.8911 1162.0635,-1063.7935"/>
<polygon fill="#000000" stroke="#000000" points="1165.5062,-1064.431 1164.1723,-1053.9205 1158.6606,-1062.9688 1165.5062,-1064.431"/>
</g>
<!-- 723144785164344 -->
<g id="node1" class="node">
<title>723144785164344</title>
<polygon fill="#ffe0e0" stroke="#000000" points="1001,-746 903,-746 903,-710 1001,-710 1001,-746"/>
<text text-anchor="middle" x="952" y="-724.3" font-family="Times,serif" font-size="14.00" fill="#000000">Mohnani, Laju</text>
</g>
<!-- 3421093335847336 -->
<g id="node2" class="node">
<title>3421093335847336</title>
<polygon fill="#e0e0ff" stroke="#000000" points="532,-1363 412,-1363 412,-1327 532,-1327 532,-1363"/>
<text text-anchor="middle" x="472" y="-1341.3" font-family="Times,serif" font-size="14.00" fill="#000000">Mukhi, Ramkishin</text>
</g>
<!-- 2480424420706575 -->
<g id="node3" class="node">
<title>2480424420706575</title>
<ellipse fill="#ffffe0" stroke="#000000" cx="536" cy="-1036" rx="27" ry="18"/>
</g>
<!-- 1838672550713352 -->
<g id="node4" class="node">
<title>1838672550713352</title>
<polygon fill="#ffe0e0" stroke="#000000" points="653.5,-1363 546.5,-1363 546.5,-1327 653.5,-1327 653.5,-1363"/>
<text text-anchor="middle" x="600" y="-1341.3" font-family="Times,serif" font-size="14.00" fill="#000000">Melwani, Ganga</text>
</g>
<!-- 2708895315918914 -->
<g id="node5" class="node">
<title>2708895315918914</title>
<ellipse fill="#ffffe0" stroke="#000000" cx="239" cy="-1036" rx="27" ry="18"/>
</g>
<!-- 6975093731668089 -->
<g id="node6" class="node">
<title>6975093731668089</title>
<polygon fill="#ffe0e0" stroke="#000000" points="267,-1363 211,-1363 211,-1327 267,-1327 267,-1363"/>
<text text-anchor="middle" x="239" y="-1341.3" font-family="Times,serif" font-size="14.00" fill="#000000">, Devki</text>
</g>
<!-- 4843542927562395 -->
<g id="node7" class="node">
<title>4843542927562395</title>
<polygon fill="#e0e0ff" stroke="#000000" points="255,-746 121,-746 121,-710 255,-710 255,-746"/>
<text text-anchor="middle" x="188" y="-724.3" font-family="Times,serif" font-size="14.00" fill="#000000">Sakhrani, Bhagwan S</text>
</g>
<!-- 8727096660082386 -->
<g id="node8" class="node">
<title>8727096660082386</title>
<ellipse fill="#ffffe0" stroke="#000000" cx="123" cy="-419" rx="27" ry="18"/>
</g>
<!-- 2404594069846226 -->
<g id="node9" class="node">
<title>2404594069846226</title>
<polygon fill="#ffe0e0" stroke="#000000" points="107,-746 9,-746 9,-710 107,-710 107,-746"/>
<text text-anchor="middle" x="58" y="-724.3" font-family="Times,serif" font-size="14.00" fill="#000000">Mukhi, Shanta</text>
</g>
<!-- 537652579436386 -->
<g id="node10" class="node">
<title>537652579436386</title>
<polygon fill="#ffe0e0" stroke="#000000" points="355,-746 269,-746 269,-710 355,-710 355,-746"/>
<text text-anchor="middle" x="312" y="-724.3" font-family="Times,serif" font-size="14.00" fill="#000000">Mukhi, Raja</text>
</g>
<!-- 5395477325573460 -->
<g id="node11" class="node">
<title>5395477325573460</title>
<polygon fill="#e0e0ff" stroke="#000000" points="936.5,-1363 811.5,-1363 811.5,-1327 936.5,-1327 936.5,-1363"/>
<text text-anchor="middle" x="874" y="-1341.3" font-family="Times,serif" font-size="14.00" fill="#000000">Mohnani, Lachman</text>
</g>
<!-- 4579042695201841 -->
<g id="node12" class="node">
<title>4579042695201841</title>
<ellipse fill="#ffffe0" stroke="#000000" cx="874" cy="-1036" rx="27" ry="18"/>
</g>
<!-- 4734587464908873 -->
<g id="node13" class="node">
<title>4734587464908873</title>
<polygon fill="#ffe0e0" stroke="#000000" points="797,-1363 695,-1363 695,-1327 797,-1327 797,-1363"/>
<text text-anchor="middle" x="746" y="-1341.3" font-family="Times,serif" font-size="14.00" fill="#000000">Mukhi, Drupati</text>
</g>
<!-- 6260681825694879 -->
<g id="node14" class="node">
<title>6260681825694879</title>
<polygon fill="#ffe0e0" stroke="#000000" points="1037,-1363 951,-1363 951,-1327 1037,-1327 1037,-1363"/>
<text text-anchor="middle" x="994" y="-1341.3" font-family="Times,serif" font-size="14.00" fill="#000000">Mukhi, Saiti</text>
</g>
<!-- 6351534230216720 -->
<g id="node15" class="node">
<title>6351534230216720</title>
<polygon fill="#e0e0ff" stroke="#000000" points="1158,-1979 1046,-1979 1046,-1943 1158,-1943 1158,-1979"/>
<text text-anchor="middle" x="1102" y="-1957.3" font-family="Times,serif" font-size="14.00" fill="#000000">Mukhi, Gopaldas</text>
</g>
<!-- 5426651165619584 -->
<g id="node16" class="node">
<title>5426651165619584</title>
<ellipse fill="#ffffe0" stroke="#000000" cx="1048" cy="-1653" rx="27" ry="18"/>
</g>
<!-- 7668301482056250 -->
<g id="node17" class="node">
<title>7668301482056250</title>
<polygon fill="#ffe0e0" stroke="#000000" points="1032,-1979 958,-1979 958,-1943 1032,-1943 1032,-1979"/>
<text text-anchor="middle" x="995" y="-1957.3" font-family="Times,serif" font-size="14.00" fill="#000000">, Rukmani</text>
</g>
<!-- 1903025202264851 -->
<g id="node18" class="node">
<title>1903025202264851</title>
<polygon fill="#e0e0ff" stroke="#000000" points="1301,-1363 1167,-1363 1167,-1327 1301,-1327 1301,-1363"/>
<text text-anchor="middle" x="1234" y="-1341.3" font-family="Times,serif" font-size="14.00" fill="#000000">Kripalani, Ramchand</text>
</g>
<!-- 7912501744673169 -->
<g id="node19" class="node">
<title>7912501744673169</title>
<ellipse fill="#ffffe0" stroke="#000000" cx="1168" cy="-1036" rx="27" ry="18"/>
</g>
<!-- 5892173496969168 -->
<g id="node20" class="node">
<title>5892173496969168</title>
<polygon fill="#ffe0e0" stroke="#000000" points="1152.5,-1363 1051.5,-1363 1051.5,-1327 1152.5,-1327 1152.5,-1363"/>
<text text-anchor="middle" x="1102" y="-1341.3" font-family="Times,serif" font-size="14.00" fill="#000000">Mukhi, Mohini</text>
</g>
<!-- 3559478975903740 -->
<g id="node21" class="node">
<title>3559478975903740</title>
<polygon fill="#e0e0ff" stroke="#000000" points="118,-129 6,-129 6,-93 118,-93 118,-129"/>
<text text-anchor="middle" x="62" y="-107.3" font-family="Times,serif" font-size="14.00" fill="#000000">Sakhrani, Roshan</text>
</g>
<!-- 5125580830512176 -->
<g id="node22" class="node">
<title>5125580830512176</title>
<polygon fill="#ffe0e0" stroke="#000000" points="464.5,-746 369.5,-746 369.5,-710 464.5,-710 464.5,-746"/>
<text text-anchor="middle" x="417" y="-724.3" font-family="Times,serif" font-size="14.00" fill="#000000">Mukhi, Vimla</text>
</g>
<!-- 5608348862428096 -->
<g id="node23" class="node">
<title>5608348862428096</title>
<polygon fill="#e0e0ff" stroke="#000000" points="567.5,-746 478.5,-746 478.5,-710 567.5,-710 567.5,-746"/>
<text text-anchor="middle" x="523" y="-724.3" font-family="Times,serif" font-size="14.00" fill="#000000">Mukhi, Dilip</text>
</g>
<!-- 6182738364292124 -->
<g id="node24" class="node">
<title>6182738364292124</title>
<polygon fill="#ffe0e0" stroke="#000000" points="235.5,-129 132.5,-129 132.5,-93 235.5,-93 235.5,-129"/>
<text text-anchor="middle" x="184" y="-107.3" font-family="Times,serif" font-size="14.00" fill="#000000">Sakhrani, Pooja</text>
</g>
<!-- 8676921012395545 -->
<g id="node25" class="node">
<title>8676921012395545</title>
<polygon fill="#ffe0e0" stroke="#000000" points="670.5,-746 581.5,-746 581.5,-710 670.5,-710 670.5,-746"/>
<text text-anchor="middle" x="626" y="-724.3" font-family="Times,serif" font-size="14.00" fill="#000000">Mukhi, Usha</text>
</g>
<!-- 8955187234341081 -->
<g id="node26" class="node">
<title>8955187234341081</title>
<polygon fill="#e0e0ff" stroke="#000000" points="786,-746 684,-746 684,-710 786,-710 786,-746"/>
<text text-anchor="middle" x="735" y="-724.3" font-family="Times,serif" font-size="14.00" fill="#000000">Mukhi, Deepak</text>
</g>
<!-- 1194404901759110 -->
<g id="node27" class="node">
<title>1194404901759110</title>
<polygon fill="#ffe0e0" stroke="#000000" points="889.5,-746 800.5,-746 800.5,-710 889.5,-710 889.5,-746"/>
<text text-anchor="middle" x="845" y="-724.3" font-family="Times,serif" font-size="14.00" fill="#000000">Mukhi, Lalta</text>
</g>
<!-- 3785291837367488 -->
<g id="node28" class="node">
<title>3785291837367488</title>
<polygon fill="#ffe0e0" stroke="#000000" points="1423,-1363 1315,-1363 1315,-1327 1423,-1327 1423,-1363"/>
<text text-anchor="middle" x="1369" y="-1341.3" font-family="Times,serif" font-size="14.00" fill="#000000">Mukhi, Lajwanti</text>
</g>
<!-- 5213984910046277 -->
<g id="node29" class="node">
<title>5213984910046277</title>
<polygon fill="#ffe0e0" stroke="#000000" points="1536.5,-1363 1437.5,-1363 1437.5,-1327 1536.5,-1327 1536.5,-1363"/>
<text text-anchor="middle" x="1487" y="-1341.3" font-family="Times,serif" font-size="14.00" fill="#000000">Mukhi, Parpati</text>
</g>
</g>
</svg>
